<svg width="120" height="93" viewBox="0 0 120 93" fill="none" xmlns="http://www.w3.org/2000/svg">
<g id="Vector">
<path d="M0.0342484 92.4013V89.6098C0.0342484 79.0281 -0.0706787 68.4447 0.086731 57.8654C0.148514 53.7065 0.76165 49.5661 1.97731 45.5264C3.3085 41.1026 4.72087 36.7442 6.96391 32.6673C9.11639 28.7555 11.4161 24.9735 14.4788 21.6929C15.8557 20.2174 17.068 18.5723 18.5417 17.2052C21.8054 14.1781 25.2201 11.3037 29.1535 9.16814C32.1734 7.52892 35.1853 5.77966 38.3935 4.60756C42.2881 3.18498 46.2084 1.82079 50.4224 1.27073C56.0827 0.531952 61.737 0.679634 67.3537 0.974556C73.1232 1.27796 78.6578 3.08346 83.9575 5.46148C87.3278 6.97419 90.583 8.68239 93.6143 10.8112C99.2991 14.8043 104.333 19.4389 108.455 25.0818C111.2 28.8396 113.562 32.8074 115.338 37.073C116.744 40.4513 118.116 43.9472 118.729 47.5231C119.331 51.0415 120.043 54.5878 119.998 58.2437C119.869 68.7391 119.958 79.2371 119.952 89.7346C119.952 90.5568 119.885 91.3794 119.821 92.8142C119.087 91.9921 118.571 91.6586 118.447 91.216C118.271 90.5856 118.372 89.8743 118.372 89.1977C118.368 78.9544 118.459 68.7103 118.31 58.4688C118.264 55.2318 117.637 51.9944 117.167 48.7731C116.522 44.3522 114.894 40.1915 113.074 36.181C111.348 32.3796 109.194 28.7339 106.58 25.4309C104.808 23.1934 103.104 20.8352 100.997 18.9477C98.0111 16.2734 95.0457 13.515 91.4867 11.5419C90.0959 10.7705 88.8045 9.82018 87.4196 9.03736C82.9331 6.50195 78.0615 4.95077 73.107 3.67881C71.3392 3.22478 69.4355 3.30856 67.6609 2.87402C64.3989 2.07599 61.1074 2.39713 57.8391 2.44623C51.9571 2.53382 46.2338 3.52818 40.681 5.64127C35.9478 7.44257 31.416 9.56292 27.2511 12.439C22.8023 15.5105 18.8312 19.0695 15.3644 23.2691C12.9445 26.2014 10.7493 29.259 8.90443 32.5408C6.52472 36.7747 4.88381 41.3437 3.6106 46.0346C2.43893 50.3514 2.02174 54.7482 2.04543 59.2182C2.09749 69.1225 2.06106 79.0268 2.05979 88.9315C2.05979 89.9394 2.22819 91.01 1.50463 91.8402C1.26175 92.1194 0.731995 92.1495 0.0342484 92.4013Z" fill="#5A60F1"/>
<path d="M10.4422 92.7449C9.82019 91.9578 9.35853 91.5981 9.21933 91.1407C9.05387 90.5961 9.15756 89.9678 9.15714 89.3754C9.15588 79.725 9.18929 70.0746 9.14402 60.4246C9.11863 55.011 10.0021 49.7721 11.7209 44.6484C14.222 37.1927 18.1475 30.6219 23.7874 25.1216C25.7161 23.2407 27.7069 21.4137 29.7773 19.6915C30.9913 18.6823 32.3745 17.8513 33.7569 17.0736C38.6737 14.3075 43.7907 11.9985 49.3329 10.7938C51.1198 10.4058 52.9528 10.1625 54.7774 10.0364C56.7157 9.90271 58.6736 10.0661 60.6153 9.96152C66.2384 9.65856 71.6067 10.7883 76.8887 12.5976C82.7592 14.608 87.9774 17.7011 92.738 21.6582C97.4192 25.5489 101.183 30.1408 104.235 35.411C106.566 39.4362 108.423 43.6341 109.455 48.1333C110.16 51.2108 110.825 54.3344 110.82 57.5426C110.804 68.3782 110.822 79.2134 110.815 90.049C110.815 90.7726 110.716 91.4958 110.616 92.854C109.904 91.9625 109.42 91.6032 109.303 91.1488C109.138 90.5124 109.238 89.8057 109.238 89.1287C109.235 79.2244 109.217 69.3197 109.243 59.4158C109.251 56.1263 108.52 52.9456 108.023 49.7269C107.468 46.1281 106.11 42.7616 104.547 39.5598C102.793 35.9657 100.863 32.3944 97.9909 29.4701C96.6377 28.0924 95.5155 26.4773 94.1069 25.1652C89.1448 20.542 83.5556 16.8958 77.1235 14.6109C74.6038 13.7151 72.1001 12.7944 69.4242 12.4593C67.1917 12.1792 64.9724 11.7577 62.7327 11.5838C59.1115 11.3024 55.5031 11.7039 51.906 12.0954C50.7487 12.2215 49.5923 12.458 48.4672 12.7614C41.5917 14.6173 35.2806 17.6656 29.6085 21.9697C28.287 22.9721 27.1255 24.2152 26.0194 25.4614C25.0771 26.5234 23.9038 27.2876 22.95 28.3797C18.1106 33.9211 14.9274 40.2884 12.747 47.246C11.7615 50.3912 11.4256 53.5973 11.1713 56.8664C10.2962 68.0921 10.955 79.3294 10.7248 90.5581C10.7138 91.1111 10.5865 91.6621 10.4422 92.7449Z" fill="#5A60F1"/>
<path d="M100.92 92.54C100.578 91.8465 100.213 91.3849 100.133 90.878C100.015 90.1345 100.099 89.3589 100.099 88.5973C100.098 78.693 100.19 68.7874 100.051 58.8852C99.9901 54.5367 99.1608 50.2875 97.434 46.2056C96.0495 42.9326 94.4255 39.837 92.3009 37.0049C89.2404 32.9259 85.5549 29.5116 81.2453 26.7752C77.3122 24.2771 73.0403 22.598 68.4928 21.6705C64.1341 20.7819 59.7814 20.3537 55.2834 21.0726C52.7125 21.4839 50.1775 21.8372 47.7123 22.6983C43.0112 24.3405 38.749 26.6644 34.8029 29.7718C27.8406 35.2527 23.7485 42.4968 21.1433 50.731C20.6211 52.3799 20.5297 54.1821 20.3668 55.9254C19.3094 67.2244 20.1214 78.5525 19.859 89.8645C19.8404 90.6702 20.1421 91.6037 19.0068 92.2155C18.7758 91.8364 18.4242 91.4771 18.3366 91.062C18.2168 90.4938 18.2926 89.8836 18.2926 89.2912C18.2926 79.5562 18.3239 69.8211 18.2765 60.0865C18.2613 57.0466 18.4292 54.0458 19.3288 51.1334C20.4874 47.381 21.6624 43.679 23.6736 40.2059C25.3797 37.2596 27.5613 34.7407 29.6076 32.1024C30.7729 30.6007 32.4312 29.4714 33.9084 28.2223C36.2251 26.2628 38.8104 24.6718 41.502 23.3224C45.4735 21.3311 49.6879 19.8819 54.086 19.2451C56.4928 18.8968 58.9909 19.24 61.44 19.1152C67.3072 18.8165 72.7703 20.534 77.9338 22.9077C83.3093 25.3788 88.0087 29.0174 91.8774 33.5665C96.3423 38.8172 99.3922 44.835 101.014 51.5311C101.444 53.307 101.485 55.1802 101.665 57.0133C102.708 67.6373 101.872 78.2906 102.133 88.9269C102.162 90.0969 102.282 91.3049 100.92 92.54Z" fill="#5A60F1"/>
<path d="M27.5681 92.2227C27.519 91.4437 27.4323 90.7062 27.4318 89.9686C27.4276 79.4778 27.4589 68.9871 27.4247 58.4963C27.4145 55.4244 28.1245 52.5149 29.2403 49.7142C30.2605 47.1538 31.4466 44.6586 33.0752 42.3931C35.9115 38.4486 39.3058 35.141 43.5414 32.7084C47.2722 30.5657 51.2658 28.89 55.4793 28.4461C60.5515 27.9113 65.6849 28.0069 70.6195 29.9927C73.5095 31.1559 76.3395 32.3009 78.8859 34.1547C81.6896 36.1959 84.2313 38.4761 86.2793 41.2667C88.6776 44.5346 90.5432 48.0957 91.6213 52.0182C92.0386 53.5368 92.3416 55.1078 92.4968 56.6747C93.6063 67.8819 92.7173 79.122 93.0016 90.344C93.0215 91.1289 92.9987 91.8825 92.0695 92.2523C91.2939 92.1398 90.9795 91.6197 90.9668 90.8598C90.9566 90.2674 90.9621 89.675 90.9617 89.083C90.9591 78.8461 91.0062 68.6084 90.9253 58.3719C90.8983 54.9221 89.9529 51.642 88.5993 48.4388C86.6466 43.8191 83.5983 40.062 79.8756 36.8327C77.4705 34.7458 74.6782 33.2327 71.7624 31.9023C66.6662 29.5764 61.264 29.4046 55.9308 29.9635C51.1951 30.4594 46.6332 32.0428 42.7599 35.083C41.378 36.1684 39.9427 37.1872 38.581 38.2971C36.0575 40.3548 34.2109 43.0489 32.7778 45.856C31.1635 49.0177 29.8649 52.3482 29.3964 56.0257C28.934 59.657 29.0588 63.2532 29.0233 66.8629C28.9496 74.3071 29.0017 81.7526 28.9991 89.1977C28.9991 89.8743 29.0364 90.5581 28.9509 91.2249C28.8671 91.8753 28.4461 92.2434 27.5681 92.2227Z" fill="#5A60F1"/>
<path d="M37.1166 92.3183C36.2665 91.5622 36.0922 90.7142 36.0934 89.7516C36.1087 80.2759 35.9538 70.7968 36.1586 61.3254C36.2826 55.5902 38.1913 50.4039 42.0152 45.9144C45.7053 41.5827 50.2151 38.964 55.7709 37.8893C63.9441 36.3084 70.8163 38.8189 76.7533 44.3374C79.9674 47.3247 82.0162 51.0606 83.0901 55.2936C83.498 56.9007 83.815 58.5814 83.8264 60.2308C83.8945 70.1296 83.8645 80.0284 83.8573 89.9272C83.8564 90.8153 84.1023 91.8414 82.8219 92.2604C81.7992 91.5376 81.8186 90.4582 81.8195 89.3708C81.8254 82.7716 81.8224 76.1719 81.8224 69.5727C81.8224 66.4424 81.8174 63.312 81.8216 60.1817C81.8318 53.0726 78.5377 47.7216 73.0394 43.4971C70.0356 41.1888 66.601 40.167 62.9371 39.429C57.4406 38.3226 52.6008 40.029 48.1164 42.7189C44.414 44.9395 41.84 48.3309 39.9994 52.3638C38.5882 55.4565 38.1109 58.5653 38.1249 61.8772C38.1634 71.099 38.146 80.3212 38.1257 89.543C38.1236 90.4984 38.4989 91.6273 37.1166 92.3183Z" fill="#5A60F1"/>
<path d="M46.1166 92.3996C45.7984 91.9371 45.4045 91.5837 45.3 91.1589C45.1621 90.5991 45.2437 89.983 45.2437 89.391C45.242 80.168 45.1976 70.9445 45.2607 61.7218C45.2945 56.7115 47.3154 52.3964 51.3382 49.5495C55.8788 46.3367 60.9661 45.366 66.2811 48.1452C69.5295 49.8436 72.1453 52.1615 73.5675 55.5441C74.2318 57.1245 74.6562 58.9292 74.674 60.6374C74.7772 70.452 74.7286 80.2678 74.7235 90.0833C74.7231 90.8225 74.908 91.6443 73.8828 92.1982C73.6496 91.8398 73.2717 91.4936 73.1973 91.0916C73.0758 90.4362 73.1465 89.744 73.1465 89.0674C73.1452 80.3521 73.1347 71.6363 73.1541 62.921C73.1588 60.9729 72.7466 59.1133 72.1995 57.2667C70.5171 51.5831 64.1409 47.7017 58.0909 48.7456C52.5728 49.6976 48.9868 53.1525 47.4317 58.5716C47.2054 59.3604 47.2832 60.2468 47.2824 61.0884C47.2735 70.5654 47.2849 80.0423 47.2638 89.5192C47.2616 90.4777 47.6458 91.6079 46.1166 92.3996Z" fill="#5A60F1"/>
</g>
</svg>
